# AST/ASF file generated using VICON BodyLanguage
# -----------------------------------------------
:version 1.10
:name VICON
:units
  mass 1.0
  length 0.45
  angle deg
:documentation
   .ast/.asf automatically generated from VICON data using
   VICON BodyBuilder and BodyLanguage model FoxedUp or BRILLIANT.MOD
:root
   order TX TY TZ RX RY RZ
   axis XYZ
   position 0 0 0  
   orientation 0 0 0 
:bonedata
  begin
     id 1 
     name lhipjoint
     direction 0.588788 -0.725889 0.355548 
     length 2.37778 
     axis 0 0 0  XYZ
  end
  begin
     id 2 
     name lfemur
     direction 0.34202 -0.939693 0  
     length 6.86393  
     axis 0 0 20  XYZ
    dof rx ry rz
    limits (-160.0 20.0)
           (-70.0 70.0)
           (-60.0 70.0)
  end
  begin
     id 3 
     name ltibia
     direction 0.34202 -0.939693 0   
     length 7.32851   
     axis 0 0 20   XYZ
    dof rx
    limits (-10.0 170.0)
  end
  begin
     id 4 
     name lfoot
     direction 0.0626533 -0.172138 0.983078   
     length 1.98929   
     axis -90 7.62852e-016 20   XYZ
    dof rx rz
    limits (-45.0 90.0)
           (-70.0 20.0)
  end
  begin
     id 5 
     name ltoes
     direction 1.53647e-011 -4.21734e-011 1   
     length 1.00479   
     axis -90 7.62852e-016 20   XYZ
    dof rx
    limits (-90.0 20.0)
  end
  begin
     id 6 
     name rhipjoint
     direction -0.59141 -0.724168 0.354705   
     length 2.38343  
     axis 0 0 0  XYZ 
  end
  begin
     id 7 
     name rfemur
     direction -0.34202 -0.939693 0   
     length 6.95589   
     axis 0 0 -20   XYZ
    dof rx ry rz
    limits (-160.0 20.0)
           (-70.0 70.0)
           (-70.0 60.0)
  end
  begin
     id 8 
     name rtibia
     direction -0.34202 -0.939693 0   
     length 7.32327   
     axis 0 0 -20   XYZ
    dof rx
    limits (-10.0 170.0)
 end
 begin
     id 9 
     name rfoot
     direction -0.0660461 -0.18146 0.981178   
     length 1.85272  
     axis -90 -7.62852e-016 -20   XYZ
    dof rx rz
    limits (-45.0 90.0)
           (-20.0 70.0)
  end
  begin
     id 10 
     name rtoes
     direction -1.53586e-011 -4.21988e-011 1   
     length 0.93746   
     axis -90 -7.62852e-016 -20   XYZ
    dof rx
    limits (-90.0 20.0)
  end
  begin
     id 11 
     name lowerback
     direction -0.0107982 0.991059 0.13299   
     length 1.98691   
     axis 0 0 0   XYZ
    dof rx ry rz
    limits (-20.0 45.0)
           (-30.0 30.0)
           (-30.0 30.0)
  end
  begin
     id 12 
     name upperback
     direction 0.0076296 0.999916 0.0104576   
     length 1.99501   
     axis 0 0 0   XYZ
    dof rx ry rz
    limits (-20.0 45.0)
           (-30.0 30.0)
           (-30.0 30.0)
  end
  begin
     id 13 
     name thorax
     direction 0.01176 0.998615 -0.0512909   
     length 2.03144   
     axis 0 0 0   XYZ
    dof rx ry rz
    limits (-20.0 45.0)
           (-30.0 30.0)
           (-30.0 30.0)
  end
  begin
     id 14 
     name lowerneck
     direction -0.0171909 0.999644 0.0204011   
     length 1.71818   
     axis 0 0 0   XYZ
    dof rx ry rz
    limits (-20.0 45.0)
           (-30.0 30.0)
           (-30.0 30.0)
  end
  begin
     id 15 
     name upperneck
     direction 0.0250902 0.997482 -0.0663316   
     length 1.66199   
     axis 0 0 0   XYZ
    dof rx ry rz
    limits (-20.0 45.0)
           (-30.0 30.0)
           (-30.0 30.0)
  end
  begin
     id 16
     name head
     direction 0.00881535 0.99956 -0.0283365  
     length 1.81545  
     axis 0 0 0   XYZ
    dof rx ry rz
    limits (-20.0 45.0)
           (-30.0 30.0)
           (-30.0 30.0)
  end
  begin
     id 17 
     name lclavicle
     direction 0.840411 0.486876 -0.238035  
     length 3.30409  
     axis 0 0 0   XYZ
    dof ry rz
    limits (-20.0 10.0)
           (0.0 20.0)
  end
  begin
     id 18 
     name lhumerus
     direction 1 -4.48977e-011 -5.16239e-027   
     length 4.62672   
     axis 180 -30 -90   XYZ
    dof rx ry rz
    limits (-60.0 90.0)
           (-90.0 90.0)
           (-90.0 90.0)
  end
  begin
     id 19
     name lradius
     direction 1 -4.48977e-011 -8.71171e-027   
     length 3.11018   
     axis 180 -30 -90   XYZ
    dof rx
    limits (-10.0 170.0)
  end
  begin
     id 20
     name lwrist
     direction 1 -4.48912e-011 -1.03764e-026   
     length 1.55509   
     axis 9.09556e-015 90 90   XYZ
    dof ry
    limits (-180.0 0.0)
 end
  begin
     id 21 
     name lhand
     direction 1 -4.49072e-011 -2.07528e-026   
     length 0.743834   
     axis 1.3242e-014 90 90   XYZ
    dof rx rz
    limits (-90.0 90.0)
           (-45.0 45.0)
  end
  begin
     id 22 
     name lfingers
     direction 1 -4.48909e-011 -4.15056e-026   
     length 0.599698   
     axis 2.64841e-014 90 90   XYZ
    dof rx
    limits (0.0 90.0)
  end
  begin
     id 23
     name lthumb
     direction 0.707107 -6.35013e-011 0.707107   
     length 0.86105   
     axis -90 45 2.85299e-015   XYZ
    dof rx rz
    limits (-45.0 45.0)
           (-45.0 45.0)
  end
  begin
     id 24 
     name rclavicle
     direction -0.835208 0.500237 -0.228452   
     length 3.2716  
     axis 0 0 0   XYZ 
    dof ry rz
    limits (-10.0 20.0)
           (-20.0 0.0)
  end
  begin
     id 25 
     name rhumerus
     direction -1 -4.48978e-011 -5.1953e-028  
     length 4.55919   
     axis 180 30 90   XYZ
    dof rx ry rz
    limits (-90.0 60.0)
           (-90.0 90.0)
           (-90.0 90.0)
  end
  begin
     id 26 
     name rradius
     direction -1 -4.48961e-011 -5.99546e-027   
     length 3.22748   
     axis 180 30 90   XYZ
    dof rx
    limits (-10.0 170.0)
  end
  begin
     id 27 
     name rwrist
     direction -1 -4.48986e-011 -1.03764e-026   
     length 1.61374   
     axis 9.09556e-015 -90 -90   XYZ
    dof ry
    limits (-180.0 0.0)
  end
  begin
     id 28
     name rhand
     direction -1 -4.4899e-011 -2.07528e-026   
     length 0.700882   
     axis 1.3242e-014 -90 -90   XYZ
    dof rx rz
    limits (-90.0 90.0)
           (-45.0 45.0)
  end
  begin
     id 29
     name rfingers
     direction -1 -4.48991e-011 -4.15056e-026   
     length 0.565069   
     axis 2.64841e-014 -90 -90   XYZ
    dof rx
    limits (0.0 90.0)
  end
  begin
     id 30
     name rthumb
     direction -0.707107 -6.34804e-011 0.707107   
     length 0.811329   
     axis -90 -45 -2.85299e-015   XYZ
    dof rx rz
    limits (-45.0 45.0)
           (-45.0 45.0)
  end
:hierarchy
  begin
    root lhipjoint rhipjoint lowerback
    lhipjoint lfemur
    lfemur ltibia
    ltibia lfoot
    lfoot ltoes
    rhipjoint rfemur
    rfemur rtibia
    rtibia rfoot
    rfoot rtoes
    lowerback upperback
    upperback thorax
    thorax lowerneck lclavicle rclavicle
    lowerneck upperneck
    upperneck head
    lclavicle lhumerus
    lhumerus lradius
    lradius lwrist
    lwrist lhand lthumb
    lhand lfingers
    rclavicle rhumerus
    rhumerus rradius
    rradius rwrist
    rwrist rhand rthumb
    rhand rfingers
  end

#!OML:ASF F:\VICON\USERDATA\INSTALL\SteveWalk\SteveWalk.ASF
:FULLY-SPECIFIED
:DEGREES
64
root -0.502113 16.0196 -29.1055 16.2074 -4.63041 4.96937
lowerback -14.405 0.509639 -7.857
upperback -4.87737 1.8464 -2.2794
thorax 2.71916 0.93789 2.33226
lowerneck -4.60717 -2.25077 -0.160739
upperneck 13.091 -3.4409 3.14448
head 4.7395 -1.51337 0.807555
rclavicle -3.40574e-015 2.82274e-014
rhumerus -38.174 -0.241861 -87.4772
rradius 54.6072
rwrist -24.3761
rhand -31.4884 -45.7671
rfingers 7.12502
rthumb -4.75472 -75.6937
lclavicle -3.40574e-015 2.82274e-014
lhumerus -71.9678 38.4466 28.0038
lradius 10.4083
lwrist -58.2163
lhand -6.42579 -12.95
lfingers 7.12502
lthumb 19.423 16.0999
rfemur -14.4458 -2.15968 12.151
rtibia 61.4585
rfoot 20.0042 17.3109
rtoes -15.8299
lfemur -46.4854 0.449087 -29.1499
ltibia 38.2685
lfoot -8.89262 -1.26336
ltoes -11.6471
65
root -0.494757 16.0408 -28.8876 16.1602 -4.68295 5.36143
lowerback -14.5094 0.35538 -8.16262
upperback -4.73387 1.71134 -2.41249
thorax 2.9334 0.859677 2.34546
lowerneck -4.71426 -2.14354 -0.156416
upperneck 13.0404 -3.28347 3.0518
head 4.73762 -1.44109 0.786006
rclavicle -1.6201e-014 2.66371e-014
rhumerus -38.1224 -0.418876 -87.7048
rradius 52.8834
rwrist -24.2856
rhand -31.0226 -43.365
rfingers 7.12502
rthumb -4.30501 -73.3013
lclavicle -1.6201e-014 2.66371e-014
lhumerus -70.5111 38.7482 29.7063
lradius 10.4374
lwrist -56.9006
lhand -7.12125 -13.5509
lfingers 7.12502
lthumb 18.7542 15.565
rfemur -16.3106 -2.49033 11.7006
rtibia 64.145
rfoot 17.7461 16.1441
rtoes -14.7219
lfemur -45.6238 0.31993 -29.6836
ltibia 38.4014
lfoot -9.66699 -0.747128
ltoes -13.3899
66
root -0.488528 16.0616 -28.6787 16.2067 -4.81524 5.5769
lowerback -14.7232 0.239111 -8.32527
upperback -4.64384 1.6131 -2.48408
thorax 3.15034 0.800313 2.35016
lowerneck -4.68688 -2.05242 -0.176739
upperneck 13.0729 -3.15073 2.98667
head 4.73985 -1.38077 0.776861
rclavicle 1.0899e-014 1.59028e-015
rhumerus -38.0614 -0.685673 -87.8577
rradius 50.8302
rwrist -23.7969
rhand -28.9322 -42.7912
rfingers 7.12502
rthumb -2.2862 -72.7587
lclavicle 1.0899e-014 1.59028e-015
lhumerus -67.954 38.289 33.3087
lradius 10.7306
lwrist -54.0686
lhand -7.506 -13.871
lfingers 7.12502
lthumb 18.3841 15.2803
rfemur -18.3354 -2.73228 11.4472
rtibia 66.635
rfoot 15.0723 14.4906
rtoes -14.7333
lfemur -44.8029 0.194436 -29.9281
ltibia 38.531
lfoot -10.4734 -0.550344
ltoes -10.4629
67
root -0.48312 16.0928 -28.4721 16.262 -5.11709 5.6934
lowerback -14.7498 0.202106 -8.44817
upperback -4.69974 1.58178 -2.52625
thorax 3.10511 0.787488 2.36877
lowerneck -4.73466 -1.9284 -0.213109
upperneck 13.3584 -2.98441 2.95128
head 4.83272 -1.29913 0.779759
rclavicle -3.01904e-015 -3.22031e-014
rhumerus -38.1196 -1.32687 -87.7859
rradius 48.2512
rwrist -22.9066
rhand -25.8831 -41.793
rfingers 7.12502
rthumb 0.658633 -71.7717
lclavicle -3.01904e-015 -3.22031e-014
lhumerus -65.511 37.5867 36.7497
lradius 11.0284
lwrist -51.3493
lhand -7.86424 -13.7345
lfingers 7.12502
lthumb 18.0395 15.4489
rfemur -20.4245 -2.76861 11.3186
rtibia 68.8851
rfoot 12.1912 12.9542
rtoes -16.1998
lfemur -44.0228 0.358185 -30.1507
ltibia 38.6847
lfoot -11.4084 -0.418056
ltoes -6.80902
68
root -0.475933 16.1298 -28.2554 16.1898 -5.36254 5.46491
lowerback -14.6289 0.238421 -8.19773
upperback -4.76104 1.57291 -2.46394
thorax 2.98267 0.788701 2.29044
lowerneck -4.625 -1.85578 -0.248424
upperneck 13.4864 -2.87312 2.85356
head 4.85058 -1.25186 0.762397
rclavicle 3.3517e-014 -4.25399e-014
rhumerus -38.2798 -2.19934 -87.5295
rradius 45.6351
rwrist -21.4506
rhand -22.2624 -40.9831
rfingers 7.12502
rthumb 4.1554 -70.9223
lclavicle 3.3517e-014 -4.25399e-014
lhumerus -63.3297 36.9221 39.7269
lradius 11.2869
lwrist -48.9615
lhand -8.2358 -13.728
lfingers 7.12502
lthumb 17.6819 15.488
rfemur -22.254 -2.60161 11.6618
rtibia 70.8107
rfoot 9.38634 11.595
rtoes -17.3422
lfemur -43.0906 0.733538 -30.0678
ltibia 38.8135
lfoot -12.3627 -0.29386
ltoes -6.24558
69
root -0.47304 16.1601 -28.0523 16.2348 -5.07205 5.04
lowerback -14.4728 0.112099 -7.74756
upperback -4.87033 1.31224 -2.28089
thorax 2.81718 0.667864 2.18592
lowerneck -4.21454 -1.78041 -0.521747
upperneck 13.5855 -2.76517 2.99294
head 4.81492 -1.20713 0.860043
rclavicle -7.75571e-015 1.90833e-014
rhumerus -38.4915 -2.912 -87.2157
rradius 43.2614
rwrist -19.5213
rhand -18.809 -40.6511
rfingers 7.12502
rthumb 7.48952 -70.4986
lclavicle -7.75571e-015 1.90833e-014
lhumerus -61.3447 36.2657 42.5229
lradius 11.651
lwrist -46.7058
lhand -8.60599 -13.9522
lfingers 7.12502
lthumb 17.3257 15.2956
rfemur -24.0813 -2.77367 12.4337
rtibia 72.4816
rfoot 6.93905 9.99656
rtoes -17.0439
lfemur -42.2722 0.790461 -29.6655
ltibia 38.8472
lfoot -13.1251 -0.211183
ltoes -6.45574
70
root -0.466984 16.1912 -27.8474 16.3621 -4.87652 4.69835
lowerback -14.5821 -0.00482227 -7.31864
upperback -4.91245 1.10137 -2.15929
thorax 2.85999 0.561853 2.04121
lowerneck -3.9945 -1.67233 -0.533262
upperneck 13.7966 -2.61298 2.91398
head 4.8387 -1.13778 0.847447
rclavicle -7.38454e-015 -2.78299e-015
rhumerus -38.5539 -3.88251 -86.7299
rradius 40.859
rwrist -16.8397
rhand -16.3554 -39.5306
rfingers 7.12502
rthumb 9.85729 -69.2798
lclavicle -7.38454e-015 -2.78299e-015
lhumerus -58.9605 35.3102 45.8831
lradius 12.1477
lwrist -44.0459
lhand -9.13999 -13.5379
lfingers 7.12502
lthumb 16.8117 15.7543
rfemur -25.9718 -2.93624 13.0457
rtibia 73.855
rfoot 5.0461 8.33989
rtoes -14.9885
lfemur -41.5182 0.831505 -29.3637
ltibia 38.8033
lfoot -13.8652 0.281618
ltoes -6.81595
71
root -0.460477 16.221 -27.6432 16.4482 -4.65159 4.52884
lowerback -14.6349 -0.0671389 -6.9872
upperback -4.93374 0.977131 -2.17515
thorax 2.88536 0.498567 1.81926
lowerneck -3.92233 -1.6296 -0.291528
upperneck 13.8945 -2.55468 2.73092
head 4.85043 -1.10762 0.75473
rclavicle 1.49384e-014 1.59028e-014
rhumerus -38.6828 -5.69829 -85.8931
rradius 38.3945
rwrist -13.0189
rhand -14.7096 -37.4475
rfingers 7.12502
rthumb 11.4448 -67.1151
lclavicle 1.49384e-014 1.59028e-014
lhumerus -56.2398 33.8569 49.5359
lradius 12.6869
lwrist -41.145
lhand -9.80314 -13.4316
lfingers 7.12502
lthumb 16.1732 15.9137
rfemur -27.8902 -3.14199 13.4794
rtibia 74.9531
rfoot 3.43207 6.82668
rtoes -13.1356
lfemur -40.7079 0.876266 -29.2711
ltibia 38.6908
lfoot -14.7978 0.639096
ltoes -8.97124
72
root -0.456704 16.2472 -27.4424 16.4815 -4.35366 4.33022
lowerback -14.4868 -0.131526 -6.69263
upperback -5.02265 0.831503 -2.14318
thorax 2.72944 0.43186 1.66212
lowerneck -4.00733 -1.58416 -0.484114
upperneck 14.271 -2.53004 3.04116
head 4.98638 -1.08185 0.882305
rclavicle -4.06421e-015 -6.75868e-015
rhumerus -38.9868 -7.13612 -85.2181
rradius 35.9947
rwrist -10.7665
rhand -14.2844 -35.4421
rfingers 7.12502
rthumb 11.8548 -65.0866
lclavicle -4.06421e-015 -6.75868e-015
lhumerus -53.9296 32.3978 52.6022
lradius 13.1795
lwrist -38.5472
lhand -10.6103 -14.0984
lfingers 7.12502
lthumb 15.3958 15.3083
rfemur -29.7484 -3.31862 13.9827
rtibia 75.7717
rfoot 1.85901 5.52383
rtoes -12.6006
lfemur -39.8245 0.85538 -29.0942
ltibia 38.5203
lfoot -15.5246 0.601637
ltoes -10.2932
73
root -0.448442 16.275 -27.2404 16.5995 -4.08522 4.01175
lowerback -14.4651 -0.226201 -6.30676
upperback -5.09731 0.641563 -1.99028
thorax 2.65857 0.340048 1.57511
lowerneck -4.3302 -1.49196 -0.743294
upperneck 14.8779 -2.43013 3.24677
head 5.2321 -1.02414 0.991488
rclavicle -1.50811e-014 2.38542e-015
rhumerus -39.2097 -8.15418 -84.5575
rradius 33.6346
rwrist -9.1416
rhand -14.1886 -34.0838
rfingers 7.12502
rthumb 11.9473 -63.7229
lclavicle -1.50811e-014 2.38542e-015
lhumerus -51.8088 30.9582 55.652
lradius 13.8976
lwrist -35.8176
lhand -11.2212 -14.159
lfingers 7.12502
lthumb 14.8074 15.292
rfemur -31.5556 -3.45957 14.6025
rtibia 76.2976
rfoot 0.422708 4.35076
rtoes -12.8555
lfemur -38.9814 0.787478 -28.7684
ltibia 38.314
lfoot -15.8813 0.473997
ltoes -9.38373
74
root -0.440011 16.3028 -27.0365 16.6506 -3.8679 3.6295
lowerback -14.54 -0.275143 -5.83346
upperback -5.04889 0.514249 -1.8356
thorax 2.76528 0.271743 1.45184
lowerneck -4.52448 -1.39308 -0.579149
upperneck 15.1002 -2.28123 2.98595
head 5.32652 -0.95503 0.890438
rclavicle -5.78184e-015 2.54444e-014
rhumerus -39.469 -9.36651 -83.7834
rradius 31.5795
rwrist -7.10735
rhand -13.7215 -34.2259
rfingers 7.12502
rthumb 12.3976 -63.8383
lclavicle -5.78184e-015 2.54444e-014
lhumerus -49.5352 29.3824 58.8184
lradius 14.7441
lwrist -32.858
lhand -11.8601 -14.1089
lfingers 7.12502
lthumb 14.1918 15.3863
rfemur -33.174 -3.48805 15.3
rtibia 76.5237
rfoot -0.903103 3.35975
rtoes -13.3019
lfemur -38.0222 0.856584 -28.3912
ltibia 38.0926
lfoot -16.4434 0.356222
ltoes -8.33402
75
root -0.435629 16.3248 -26.8307 16.5418 -3.76338 3.34613
lowerback -14.408 -0.260817 -5.51561
upperback -5.02504 0.476268 -1.72749
thorax 2.72587 0.252598 1.38009
lowerneck -4.37775 -1.35076 -0.530381
upperneck 15.0924 -2.21732 2.91484
head 5.29652 -0.927203 0.86507
rclavicle -2.70145e-015 -1.35174e-014
rhumerus -39.8907 -10.8354 -82.7969
rradius 29.5161
rwrist -4.78667
rhand -13.0001 -35.7015
rfingers 7.12502
rthumb 13.0931 -65.2705
lclavicle -2.70145e-015 -1.35174e-014
lhumerus -47.4014 27.7016 61.6241
lradius 15.3937
lwrist -29.9833
lhand -12.8128 -14.6802
lfingers 7.12502
lthumb 13.2736 14.8772
rfemur -34.6218 -3.3367 15.8598
rtibia 76.4947
rfoot -2.07438 2.78768
rtoes -12.9473
lfemur -36.8917 1.02835 -28.1213
ltibia 37.8385
lfoot -17.2059 0.384756
ltoes -8.24763
76
root -0.42731 16.3439 -26.6193 16.3571 -3.61781 3.24683
lowerback -14.0228 -0.270062 -5.41229
upperback -5.23007 0.408462 -1.60803
thorax 2.30737 0.232344 1.43411
lowerneck -3.79389 -1.40836 -0.743313
upperneck 15.2193 -2.28406 2.95619
head 5.23983 -0.973219 0.913428
rclavicle -8.25267e-015 -1.03368e-014
rhumerus -40.7975 -12.4069 -81.3815
rradius 27.24
rwrist -2.10432
rhand -12.7575 -36.01
rfingers 7.12502
rthumb 13.3269 -65.5639
lclavicle -8.25267e-015 -1.03368e-014
lhumerus -45.9083 25.4492 64.3708
lradius 16.3464
lwrist -26.9933
lhand -13.4861 -14.6731
lfingers 7.12502
lthumb 12.6246 14.9254
rfemur -35.9341 -3.32773 16.186
rtibia 76.242
rfoot -3.33218 2.46853
rtoes -12.7392
lfemur -35.6267 1.07113 -28.0475
ltibia 37.5552
lfoot -17.9362 0.534475
ltoes -8.54875
77
root -0.418168 16.3631 -26.4104 16.2123 -3.41354 3.07245
lowerback -14.2405 -0.330741 -5.19053
upperback -5.02606 0.318578 -1.47529
thorax 2.64688 0.176242 1.4356
lowerneck -3.7488 -1.41325 -0.748861
upperneck 15.3267 -2.2692 2.79189
head 5.26337 -0.976191 0.864336
rclavicle -3.08582e-015 6.36111e-015
rhumerus -41.1509 -14.1139 -80.0396
rradius 24.9798
rwrist 0.5336
rhand -13.5487 -34.4688
rfingers 7.12502
rthumb 12.5643 -64.0711
lclavicle -3.08582e-015 6.36111e-015
lhumerus -43.9892 23.3078 67.2086
lradius 17.4578
lwrist -24.0417
lhand -14.1917 -14.4904
lfingers 7.12502
lthumb 11.9443 15.1488
rfemur -37.2248 -3.38322 16.6123
rtibia 75.7721
rfoot -4.74459 2.07328
rtoes -12.7703
lfemur -34.4026 1.0889 -27.8782
ltibia 37.2464
lfoot -18.6048 0.619667
ltoes -8.82864
78
root -0.413006 16.3798 -26.2082 16.1878 -3.21451 2.78895
lowerback -14.2928 -0.378651 -4.95822
upperback -4.83466 0.228121 -1.28342
thorax 2.88364 0.123421 1.49176
lowerneck -4.32908 -1.40243 -0.675375
upperneck 15.7623 -2.23325 2.52268
head 5.49374 -0.963243 0.765688
rclavicle -2.41531e-015 2.78299e-015
rhumerus -41.5367 -15.9437 -78.5204
rradius 23.0454
rwrist 2.79035
rhand -14.5607 -32.9795
rfingers 7.12502
rthumb 11.5885 -62.6391
lclavicle -2.41531e-015 2.78299e-015
lhumerus -42.0631 21.0795 69.9105
lradius 18.5858
lwrist -21.0032
lhand -15.1721 -14.9247
lfingers 7.12502
lthumb 10.9988 14.7672
rfemur -38.6198 -3.31469 17.1895
rtibia 75.0976
rfoot -6.31857 1.47977
rtoes -13.7005
lfemur -33.3419 1.12475 -27.5539
ltibia 36.9366
lfoot -19.2424 0.566439
ltoes -8.47145
